<?xml version="1.0" encoding="UTF-8" standalone="no"?>
<!DOCTYPE svg PUBLIC "-//W3C//DTD SVG 1.1//EN" "http://www.w3.org/Graphics/SVG/1.1/DTD/svg11.dtd">
<svg xmlns="http://www.w3.org/2000/svg" version="1.1" viewBox="0.00 0.00 186.00 131.00">
<path stroke="#787878" stroke-width="2.00" fill="none" stroke-linecap="butt" vector-effect="non-scaling-stroke" d="
  M 77.39 66.95
  Q 77.75 66.89 77.75 67.26
  L 77.75 116.06
  Q 77.75 116.37 78.06 116.37
  L 84.05 116.45
  Q 84.27 116.45 84.27 116.23
  L 84.27 56.70
  Q 84.27 56.42 84.55 56.42
  L 88.96 56.43
  Q 89.25 56.43 89.25 56.71
  L 89.26 116.20
  A 0.26 0.26 0.0 0 0 89.52 116.46
  L 95.50 116.43
  Q 95.75 116.43 95.75 116.18
  L 95.74 67.44
  Q 95.74 66.96 96.22 67.02
  Q 98.54 67.34 100.38 66.95
  Q 100.75 66.88 100.75 67.26
  L 100.74 116.23
  A 0.18 0.18 0.0 0 0 101.04 116.36
  L 137.73 80.02
  A 0.51 0.51 0.0 0 0 137.73 79.30
  L 87.08 28.65
  Q 86.75 28.33 86.43 28.65
  L 35.90 79.18
  Q 35.43 79.65 35.90 80.12
  L 72.08 115.98
  Q 72.75 116.66 72.75 115.70
  L 72.73 67.24
  Q 72.73 66.93 73.03 66.97
  Q 75.27 67.26 77.39 66.95"
/>
<path fill="#f0f0f0" d="
  M 0.00 0.00
  L 186.00 0.00
  L 186.00 131.00
  L 0.00 131.00
  L 0.00 0.00
  Z
  M 77.39 66.95
  Q 77.75 66.89 77.75 67.26
  L 77.75 116.06
  Q 77.75 116.37 78.06 116.37
  L 84.05 116.45
  Q 84.27 116.45 84.27 116.23
  L 84.27 56.70
  Q 84.27 56.42 84.55 56.42
  L 88.96 56.43
  Q 89.25 56.43 89.25 56.71
  L 89.26 116.20
  A 0.26 0.26 0.0 0 0 89.52 116.46
  L 95.50 116.43
  Q 95.75 116.43 95.75 116.18
  L 95.74 67.44
  Q 95.74 66.96 96.22 67.02
  Q 98.54 67.34 100.38 66.95
  Q 100.75 66.88 100.75 67.26
  L 100.74 116.23
  A 0.18 0.18 0.0 0 0 101.04 116.36
  L 137.73 80.02
  A 0.51 0.51 0.0 0 0 137.73 79.30
  L 87.08 28.65
  Q 86.75 28.33 86.43 28.65
  L 35.90 79.18
  Q 35.43 79.65 35.90 80.12
  L 72.08 115.98
  Q 72.75 116.66 72.75 115.70
  L 72.73 67.24
  Q 72.73 66.93 73.03 66.97
  Q 75.27 67.26 77.39 66.95
  Z"
/>
<path fill="#000000" d="
  M 72.73 67.24
  L 72.75 115.70
  Q 72.75 116.66 72.08 115.98
  L 35.90 80.12
  Q 35.43 79.65 35.90 79.18
  L 86.43 28.65
  Q 86.75 28.33 87.08 28.65
  L 137.73 79.30
  A 0.51 0.51 0.0 0 1 137.73 80.02
  L 101.04 116.36
  A 0.18 0.18 0.0 0 1 100.74 116.23
  L 100.75 67.26
  Q 100.75 66.88 100.38 66.95
  Q 98.54 67.34 96.22 67.02
  Q 95.74 66.96 95.74 67.44
  L 95.75 116.18
  Q 95.75 116.43 95.50 116.43
  L 89.52 116.46
  A 0.26 0.26 0.0 0 1 89.26 116.20
  L 89.25 56.71
  Q 89.25 56.43 88.96 56.43
  L 84.55 56.42
  Q 84.27 56.42 84.27 56.70
  L 84.27 116.23
  Q 84.27 116.45 84.05 116.45
  L 78.06 116.37
  Q 77.75 116.37 77.75 116.06
  L 77.75 67.26
  Q 77.75 66.89 77.39 66.95
  Q 75.27 67.26 73.03 66.97
  Q 72.73 66.93 72.73 67.24
  Z"
/>
</svg>
